<svg width="66" height="36" viewBox="0 0 66 36" fill="none" xmlns="http://www.w3.org/2000/svg">
<path d="M57.6533 30.222C57.0303 30.222 56.5898 30.0978 56.332 29.8493C56.0527 29.583 55.9131 29.2546 55.9131 28.864C55.9131 28.367 56.085 27.7812 56.4287 27.1066C56.7939 26.4321 57.2773 25.7486 57.8789 25.0563C58.4805 24.364 59.1572 23.725 59.9092 23.1391C60.6611 22.5356 61.4238 22.0563 62.1973 21.7013C62.9922 21.3285 63.7549 21.1421 64.4854 21.1421C65.0225 21.1421 65.4092 21.2575 65.6455 21.4882C65.8818 21.719 66 22.0208 66 22.3936C66 22.8906 65.8281 23.4853 65.4844 24.1776C65.1406 24.8522 64.668 25.5445 64.0664 26.2546C63.4863 26.9469 62.8311 27.5948 62.1006 28.1984C61.3916 28.8019 60.6504 29.2901 59.877 29.6629C59.1035 30.0357 58.3623 30.222 57.6533 30.222ZM58.04 29.7161C58.4912 29.7161 59.0283 29.5297 59.6514 29.1569C60.2959 28.7664 60.9512 28.2694 61.6172 27.6658C62.2832 27.0623 62.8955 26.4232 63.4541 25.7486C64.0342 25.0563 64.4961 24.4084 64.8399 23.8048C65.2051 23.1835 65.3877 22.6776 65.3877 22.2871C65.3877 21.861 65.1406 21.648 64.6465 21.648C64.2383 21.648 63.7227 21.8522 63.0996 22.2604C62.4981 22.651 61.8643 23.1569 61.1982 23.7782C60.5537 24.3995 59.9414 25.0563 59.3613 25.7486C58.7813 26.4409 58.3086 27.0978 57.9434 27.7191C57.5996 28.3404 57.4277 28.8285 57.4277 29.1836C57.4277 29.5386 57.6318 29.7161 58.04 29.7161Z" fill="black"/>
<path d="M36.5127 36C35.9326 36 35.4492 35.9468 35.0625 35.8403C34.8906 35.7693 34.7187 35.6716 34.5469 35.5474C34.3535 35.4231 34.2246 35.2633 34.1602 35.0681C34.3965 35.2278 34.665 35.3432 34.9658 35.4142C35.2666 35.503 35.6318 35.5385 36.0615 35.5207C37.3076 35.5207 38.4785 35.2367 39.5742 34.6687C40.6484 34.1006 41.6582 33.355 42.6035 32.4319C43.5488 31.5266 44.4297 30.5592 45.2461 29.5296C46.5567 27.9142 47.8027 26.281 48.9844 24.6301C50.166 22.9615 51.4014 21.3549 52.6904 19.8105C52.9912 19.8283 53.1416 20.0058 53.1416 20.3431C53.1416 20.7869 52.8731 21.4614 52.336 22.3668C51.7988 23.2544 51.0576 24.3017 50.1123 25.5088C50.0264 25.5976 49.9512 25.6952 49.8867 25.8017C49.8223 25.9082 49.7471 26.0147 49.6611 26.1212C50.3057 25.4999 50.9717 24.8698 51.6592 24.2307C52.3682 23.5739 53.0664 22.9792 53.7539 22.4467C54.4414 21.8964 55.1074 21.4526 55.752 21.1153C56.3965 20.778 56.9873 20.6094 57.5244 20.6094C58.2119 20.6094 58.5557 20.9555 58.5557 21.6478C58.5557 22.0739 58.3946 22.6064 58.0723 23.2455C57.75 23.8845 57.2559 24.5591 56.5899 25.2692C56.1817 25.713 55.666 26.1923 55.043 26.7071C54.4414 27.2041 53.7754 27.6834 53.0449 28.1449C52.336 28.5887 51.6055 28.9526 50.8535 29.2367C50.1016 29.5207 49.3711 29.6627 48.6621 29.6627C48.082 29.6627 47.7383 29.5739 47.6309 29.3964C47.5879 29.3432 47.5772 29.2988 47.5986 29.2633C47.6416 29.2278 47.6738 29.21 47.6953 29.21C47.6953 29.21 47.749 29.2189 47.8565 29.2367C47.9639 29.2544 48.0928 29.2633 48.2432 29.2633C48.7588 29.2633 49.3496 29.1124 50.0156 28.8106C50.6817 28.5088 51.3799 28.1006 52.1104 27.5858C52.8623 27.071 53.5713 26.494 54.2373 25.855C54.9678 25.1804 55.5801 24.5147 56.0742 23.8579C56.5684 23.1834 56.8906 22.6331 57.041 22.207C57.084 22.065 57.1055 21.9496 57.1055 21.8609C57.1055 21.7188 57.0625 21.6035 56.9766 21.5147C56.9121 21.4082 56.7725 21.3727 56.5576 21.4082C56.0205 21.5147 55.376 21.8254 54.624 22.3402C53.8721 22.855 53.0879 23.4674 52.2715 24.1774C51.4551 24.8875 50.6709 25.6065 49.919 26.3343C49.1885 27.0443 48.544 27.6656 47.9854 28.1982C47.1904 29.1923 46.2881 30.213 45.2783 31.2603C44.2471 32.3254 43.1514 33.2663 41.9912 34.0828C40.8096 34.9172 39.5742 35.4941 38.2852 35.8136C37.877 35.9379 37.2861 36 36.5127 36Z" fill="black"/>
<path d="M38.8975 30.8343C38.4678 30.8343 38.0488 30.7988 37.6406 30.7278C37.2539 30.6568 36.9102 30.5325 36.6094 30.355C36.373 30.213 36.1797 30.0177 36.0293 29.7692C35.8574 29.5207 35.7715 29.2012 35.7715 28.8106C35.7715 28.3491 35.9111 27.994 36.1904 27.7455C36.4482 27.497 36.7275 27.3727 37.0283 27.3727C37.2646 27.1242 37.5869 26.7781 37.9951 26.3343C38.4033 25.8727 38.8545 25.3668 39.3486 24.8165C39.8643 24.2662 40.3906 23.7159 40.9277 23.1656C41.4649 22.5976 41.9697 22.0916 42.4424 21.6478C42.7432 21.3993 43.0547 21.133 43.377 20.849C43.7207 20.565 44.0967 20.3253 44.5049 20.1301C44.9346 19.9171 45.3857 19.8105 45.8584 19.8105C46.2236 19.8105 46.4815 19.8816 46.6318 20.0236C46.8037 20.1656 46.8897 20.3342 46.8897 20.5295C46.8897 20.636 46.8574 20.7336 46.793 20.8224C46.5567 20.7869 46.2236 20.8224 45.794 20.9289C45.3643 21.0177 44.8916 21.1863 44.376 21.4348C43.8174 21.7188 43.2481 22.0739 42.668 22.4999C42.6465 22.7129 42.6143 23.0413 42.5713 23.4851C42.5498 23.9112 42.5176 24.3993 42.4746 24.9496C42.4316 25.4822 42.3565 26.0236 42.249 26.5739C42.1631 27.1065 42.0449 27.5769 41.8945 27.9852C41.7871 28.2692 41.6152 28.5887 41.3789 28.9438C41.1426 29.281 40.8203 29.6006 40.4121 29.9023C40.0254 30.1864 39.542 30.3816 38.9619 30.4881C39.7354 30.4881 40.3799 30.3905 40.8955 30.1952C41.4111 30 41.8408 29.7781 42.1846 29.5296C42.5498 29.2633 42.8399 29.0503 43.0547 28.8905C43.2266 28.7485 43.4629 28.5443 43.7637 28.2781C44.0645 28.0118 44.2793 27.8165 44.4082 27.6923C44.4942 27.6923 44.5371 27.7455 44.5371 27.852C44.5371 28.0118 44.4942 28.1361 44.4082 28.2248C43.5059 29.0236 42.7539 29.6094 42.1523 29.9822C41.6152 30.3195 41.0674 30.5414 40.5088 30.6479C39.9502 30.7722 39.4131 30.8343 38.8975 30.8343ZM37.7695 30.3284C38.1348 30.3284 38.4678 30.213 38.7686 29.9822C39.0908 29.7337 39.3809 29.4497 39.6387 29.1301C39.8965 28.7929 40.1006 28.4822 40.251 28.1982C40.4873 27.7721 40.7344 27.2307 40.9922 26.5739C41.25 25.9171 41.4971 25.2514 41.7334 24.5769C41.9697 23.8845 42.1631 23.2899 42.3135 22.7928C41.7119 23.2721 41.1104 23.7958 40.5088 24.3638C39.9287 24.9319 39.3916 25.4733 38.8975 25.9881C38.4033 26.5029 37.9951 26.9289 37.6729 27.2662C37.3936 27.568 37.1787 27.8875 37.0283 28.2248C36.8779 28.5621 36.8027 28.8816 36.8027 29.1834C36.8027 29.5207 36.8887 29.7958 37.0605 30.0089C37.2324 30.2219 37.4687 30.3284 37.7695 30.3284Z" fill="black"/>
<path d="M31.4531 30.7283C31.002 30.7283 30.6797 30.6307 30.4863 30.4354C30.293 30.2224 30.1963 29.9561 30.1963 29.6366C30.1963 29.1573 30.4004 28.6159 30.8086 28.0123C31.2168 27.391 31.7432 26.7431 32.3877 26.0685C33.0537 25.3939 33.7412 24.7282 34.4502 24.0714C35.1807 23.4146 35.8682 22.8111 36.5127 22.2608C36.1904 22.2608 35.836 22.3318 35.4492 22.4738C35.084 22.6158 34.708 22.7844 34.3213 22.9797C33.7412 23.2992 33.1074 23.7253 32.4199 24.2578C31.7324 24.7904 31.0449 25.3584 30.3574 25.962C29.6699 26.5655 29.0147 27.1602 28.3916 27.746C27.8975 28.2253 27.5 28.6247 27.1992 28.9443C26.9199 29.2638 26.6729 29.5567 26.458 29.823C26.2646 30.0715 26.0498 30.3555 25.8135 30.675C25.4697 30.675 25.2979 30.5064 25.2979 30.1691C25.2979 29.8141 25.4375 29.388 25.7168 28.891C25.9746 28.394 26.2002 28.0034 26.3936 27.7194C26.9522 26.9383 27.5859 26.1217 28.2949 25.2697C29.0254 24.3998 29.7022 23.6365 30.3252 22.9797C30.6475 22.6247 30.9912 22.3673 31.3565 22.2075C31.7217 22.03 32.0332 21.9235 32.291 21.888C32.5488 21.8347 32.6777 21.8081 32.6777 21.8081C32.5488 21.9679 32.2803 22.3052 31.8721 22.8199C31.4639 23.3347 30.9912 23.9383 30.4541 24.6306C29.917 25.3229 29.3691 26.0241 28.8106 26.7342C29.6914 25.8999 30.6367 25.0922 31.6465 24.3111C32.6563 23.5123 33.6231 22.8643 34.5469 22.3673C34.8262 22.2075 35.1162 22.0744 35.417 21.9679C35.7178 21.8614 36.0293 21.8081 36.3516 21.8081C36.9317 21.8081 37.2217 21.9945 37.2217 22.3673C37.2217 22.6513 37.0176 22.9886 36.6094 23.3791C36.1152 23.8584 35.5781 24.391 34.9981 24.9768C34.418 25.5626 33.8594 26.1573 33.3223 26.7608C32.8067 27.3644 32.377 27.9235 32.0332 28.4383C31.7109 28.9531 31.5498 29.3703 31.5498 29.6898C31.5498 29.8673 31.6035 30.0005 31.7109 30.0892C31.8399 30.1602 31.9473 30.1957 32.0332 30.1957C32.3555 30.1957 32.71 30.0892 33.0967 29.8762C33.5049 29.6632 33.8916 29.4147 34.2568 29.1306C34.6436 28.8289 34.9766 28.5448 35.2559 28.2786C35.5567 28.0123 35.75 27.8348 35.8359 27.746C35.9219 27.746 35.9649 27.7993 35.9649 27.9058C35.9649 28.0656 35.9219 28.1898 35.8359 28.2786C35.5352 28.5448 35.1377 28.8732 34.6436 29.2638C34.1494 29.6543 33.6231 30.0005 33.0645 30.3023C32.5059 30.5863 31.9688 30.7283 31.4531 30.7283Z" fill="black"/>
<path d="M26.6514 20.6894C26.2217 20.6894 26.0068 20.5474 26.0068 20.2634C26.0068 20.1746 26.0391 20.077 26.1035 19.9705C26.2109 19.7575 26.3936 19.5711 26.6514 19.4113C26.9307 19.2338 27.1992 19.145 27.457 19.145C27.8652 19.145 28.0693 19.287 28.0693 19.5711C28.0693 19.8373 27.919 20.0859 27.6182 20.3166C27.3174 20.5474 26.9951 20.6717 26.6514 20.6894ZM19.6582 30.7546C19.0781 30.7546 18.6699 30.6303 18.4336 30.3818C18.1758 30.1155 18.0469 29.7871 18.0469 29.3966C18.0469 28.8818 18.2402 28.3315 18.627 27.7457C18.9922 27.1421 19.4541 26.5474 20.0127 25.9616C20.5713 25.3581 21.1406 24.7989 21.7207 24.2841C22.3008 23.7516 22.8057 23.3166 23.2354 22.9794C23.6436 22.6421 24.0625 22.3936 24.4922 22.2338C24.9219 22.074 25.2871 21.9675 25.5879 21.9143C25.9102 21.8433 26.0713 21.8078 26.0713 21.8078C25.5986 22.2516 24.9541 22.8817 24.1377 23.6983C23.3213 24.5149 22.5156 25.3847 21.7207 26.3078C21.6563 26.3788 21.5059 26.5563 21.2695 26.8403C21.0332 27.1244 20.7647 27.4528 20.4639 27.8256C20.1846 28.1983 19.9375 28.5623 19.7227 28.9173C19.5293 29.2723 19.4326 29.5563 19.4326 29.7694C19.4326 30.1066 19.6475 30.2753 20.0772 30.2753C20.3994 30.2753 20.7432 30.1776 21.1084 29.9824C21.4951 29.7871 21.8818 29.5475 22.2686 29.2634C22.6553 28.9794 22.999 28.7043 23.2998 28.438C23.6221 28.154 23.8691 27.9232 24.041 27.7457C24.127 27.7457 24.1699 27.7989 24.1699 27.9054C24.1699 28.0652 24.127 28.1895 24.041 28.2782C23.2246 29.0593 22.4834 29.6717 21.8174 30.1155C21.1729 30.5416 20.4531 30.7546 19.6582 30.7546Z" fill="black"/>
<path d="M30.7083 15.2577C30.1711 15.2577 29.7952 15.1512 29.5803 14.9382C29.3655 14.7252 29.2581 14.45 29.2581 14.1127C29.2581 13.5269 29.5159 12.8613 30.0315 12.1157C30.3323 11.6896 30.7405 11.2015 31.2561 10.6512C31.7932 10.0831 32.3948 9.48845 33.0608 8.86714C33.7268 8.22808 34.3928 7.60678 35.0588 7.00322H32.8997L33.2542 6.63044H35.4778C36.0794 6.11564 36.638 5.63635 37.1536 5.19256C37.6907 4.73101 38.1311 4.35823 38.4749 4.0742C39.4202 3.29313 40.2903 2.69845 41.0852 2.29017C41.9016 1.88188 42.5462 1.67773 43.0188 1.67773C42.6751 1.92626 42.1702 2.31679 41.5042 2.84934C40.8596 3.38189 40.1399 3.97657 39.345 4.63338C38.5715 5.29019 37.8088 5.95588 37.0569 6.63044H39.2805L38.926 7.00322H36.6702C36.262 7.39376 35.8753 7.75766 35.51 8.09495C35.1663 8.43223 34.8655 8.75176 34.6077 9.05353C33.5979 10.1896 32.7815 11.1216 32.1585 11.8494C31.5354 12.5772 31.1272 13.1275 30.9338 13.5003C30.7835 13.8021 30.7083 14.0506 30.7083 14.2459C30.7083 14.5832 30.9016 14.7518 31.2883 14.7518C31.6106 14.7518 31.9544 14.663 32.3196 14.4855C32.8567 14.237 33.3938 13.882 33.9309 13.4204C34.4895 12.9411 34.9407 12.5329 35.2844 12.1956C35.3704 12.1956 35.4133 12.2488 35.4133 12.3553C35.4133 12.5151 35.3704 12.6394 35.2844 12.7281C34.468 13.5092 33.7053 14.1305 32.9963 14.592C32.2874 15.0358 31.5247 15.2577 30.7083 15.2577Z" fill="black"/>
<path d="M25.1035 15.3372C24.6738 15.3372 24.2549 15.3017 23.8467 15.2307C23.46 15.1597 23.1162 15.0355 22.8154 14.8579C22.5791 14.7159 22.3857 14.5207 22.2354 14.2721C22.0635 14.0236 21.9775 13.7041 21.9775 13.3135C21.9775 12.852 22.1172 12.497 22.3965 12.2484C22.6543 11.9999 22.9336 11.8757 23.2344 11.8757C23.4707 11.6271 23.793 11.281 24.2012 10.8372C24.6094 10.3757 25.0605 9.86973 25.5547 9.31943C26.0703 8.76913 26.5967 8.21883 27.1338 7.66853C27.6709 7.10048 28.1758 6.59456 28.6484 6.15077C28.9492 5.90225 29.2607 5.63597 29.583 5.35195C29.9268 5.06792 30.3027 4.82827 30.7109 4.63301C31.1406 4.41999 31.5918 4.31348 32.0645 4.31348C32.4297 4.31348 32.6875 4.38448 32.8379 4.5265C33.0098 4.66851 33.0957 4.83715 33.0957 5.03242C33.0957 5.13893 33.0635 5.23656 32.999 5.32532C32.7627 5.28982 32.4297 5.32532 32 5.43183C31.5703 5.52059 31.0977 5.68923 30.582 5.93775C30.0234 6.22178 29.4541 6.57681 28.874 7.00285C28.8525 7.21587 28.8203 7.54427 28.7773 7.98806C28.7559 8.4141 28.7236 8.90227 28.6807 9.45257C28.6377 9.98512 28.5625 10.5265 28.4551 11.0768C28.3691 11.6094 28.251 12.0798 28.1006 12.4881C27.9932 12.7721 27.8213 13.0917 27.585 13.4467C27.3486 13.784 27.0264 14.1035 26.6182 14.4053C26.2314 14.6893 25.7481 14.8846 25.168 14.9911C25.9414 14.9911 26.5859 14.8934 27.1016 14.6982C27.6172 14.5029 28.0469 14.281 28.3906 14.0325C28.7559 13.7662 29.0459 13.5532 29.2608 13.3934C29.4326 13.2514 29.669 13.0473 29.9697 12.781C30.2705 12.5147 30.4854 12.3195 30.6143 12.1952C30.7002 12.1952 30.7432 12.2484 30.7432 12.355C30.7432 12.5147 30.7002 12.639 30.6143 12.7277C29.7119 13.5266 28.96 14.1124 28.3584 14.4852C27.8213 14.8224 27.2734 15.0443 26.7148 15.1508C26.1563 15.2751 25.6191 15.3372 25.1035 15.3372ZM23.9756 14.8313C24.3408 14.8313 24.6738 14.7159 24.9746 14.4852C25.2969 14.2366 25.5869 13.9526 25.8447 13.6331C26.1025 13.2958 26.3066 12.9851 26.457 12.7011C26.6934 12.2751 26.9404 11.7337 27.1982 11.0768C27.4561 10.42 27.7031 9.75435 27.9395 9.07979C28.1758 8.38747 28.3691 7.79279 28.5195 7.29575C27.918 7.77504 27.3164 8.29871 26.7148 8.86677C26.1348 9.43482 25.5977 9.97624 25.1035 10.491C24.6094 11.0058 24.2012 11.4319 23.8789 11.7692C23.5996 12.0709 23.3848 12.3905 23.2344 12.7277C23.084 13.065 23.0088 13.3846 23.0088 13.6863C23.0088 14.0236 23.0947 14.2988 23.2666 14.5118C23.4385 14.7248 23.6748 14.8313 23.9756 14.8313Z" fill="black"/>
<path d="M17.938 15.3373C16.9497 15.3373 16.2515 15.1598 15.8433 14.8047C15.4351 14.4497 15.231 13.9704 15.231 13.3668C15.231 12.781 15.4243 12.1686 15.811 11.5296C16.2192 10.8727 16.7241 10.2514 17.3257 9.66564C17.6909 9.3106 18.1421 8.93782 18.6792 8.54728C19.2163 8.15675 19.7964 7.79284 20.4194 7.45556C21.0425 7.10053 21.6548 6.8165 22.2564 6.60348C22.8794 6.37271 23.4273 6.25732 23.8999 6.25732C24.1577 6.25732 24.3941 6.31058 24.6089 6.41709C24.8237 6.50585 24.9312 6.70999 24.9312 7.02952C24.9312 7.47331 24.6733 7.89935 24.1577 8.30764C23.6421 8.69817 23.062 9.06208 22.4175 9.39936C21.687 9.7899 20.9243 10.1183 20.1294 10.3846C19.3345 10.6508 18.647 10.855 18.0669 10.997C17.7446 11.423 17.4868 11.858 17.2935 12.3017C17.1001 12.7455 17.0034 13.1805 17.0034 13.6065C17.0034 14.068 17.1323 14.3876 17.3901 14.5651C17.6694 14.7248 17.9917 14.8047 18.3569 14.8047C19.023 14.8047 19.6245 14.6805 20.1616 14.4319C20.7202 14.1657 21.2358 13.8284 21.7085 13.4201C22.1812 13.0118 22.6323 12.6035 23.062 12.1952C23.148 12.1952 23.1909 12.2485 23.1909 12.355C23.1909 12.5148 23.148 12.639 23.062 12.7278C22.6323 13.1361 22.1597 13.5444 21.6441 13.9527C21.1499 14.3609 20.6021 14.6982 20.0005 14.9645C19.3989 15.213 18.7114 15.3373 17.938 15.3373ZM18.4536 10.6242C19.0122 10.4645 19.6675 10.2426 20.4194 9.95854C21.1929 9.67451 21.8696 9.36386 22.4497 9.02658C22.5786 8.95557 22.8042 8.81356 23.1265 8.60054C23.4487 8.36977 23.7495 8.12124 24.0288 7.85497C24.3081 7.57094 24.4478 7.32242 24.4478 7.1094C24.4478 6.82538 24.2759 6.68336 23.9321 6.68336C23.5669 6.68336 23.148 6.8165 22.6753 7.08277C22.2241 7.34905 21.8589 7.57982 21.5796 7.77509C21.064 8.16562 20.5269 8.60054 19.9683 9.07983C19.4097 9.55912 18.9048 10.0739 18.4536 10.6242Z" fill="black"/>
<path d="M4.06055 15.7901C3.20118 15.7901 2.48145 15.6924 1.90137 15.4972C1.34277 15.3019 0.902345 15.0445 0.580079 14.725C0.19336 14.2634 0 13.7309 0 13.1273C0 12.435 0.247071 11.7072 0.741212 10.9439C1.25684 10.1806 1.94434 9.48824 2.80371 8.86693C3.81348 8.12136 4.97364 7.51781 6.28419 7.05627C7.59474 6.57697 8.99122 6.33733 10.4736 6.33733C10.7529 6.33733 11.0215 6.3462 11.2793 6.36395C11.5586 6.38171 11.8379 6.40833 12.1172 6.44384C12.375 6.46159 12.5039 6.50597 12.5039 6.57697C12.5039 6.61248 12.4287 6.63023 12.2783 6.63023C12.1065 6.63023 11.9238 6.62135 11.7305 6.6036C11.5586 6.58585 11.376 6.57697 11.1826 6.57697C10.3233 6.57697 9.43165 6.71899 8.50782 7.00301C7.58399 7.26929 6.70313 7.62432 5.86524 8.06811C5.02735 8.5119 4.29688 9.00007 3.67383 9.53262C3.15821 9.94091 2.65332 10.4468 2.15918 11.0504C1.68653 11.6539 1.36426 12.3107 1.19238 13.0208C1.1709 13.1096 1.14942 13.2072 1.12793 13.3137C1.12793 13.4025 1.12793 13.4912 1.12793 13.58C1.12793 14.077 1.32129 14.4942 1.70801 14.8315C2.11621 15.1688 2.77149 15.3374 3.67383 15.3374C4.64063 15.3374 5.54297 15.151 6.38087 14.7782C7.24024 14.3877 8.04591 13.8995 8.79786 13.3137C9.54981 12.7279 10.2481 12.1421 10.8926 11.5563C11.5156 11.006 12.1924 10.3314 12.9229 9.53262C13.6533 8.71604 14.416 7.87284 15.211 7.00301H12.6328L12.9873 6.63023H15.5654L16.919 5.21897C17.4346 4.70418 17.9824 4.18938 18.5625 3.67458C19.1426 3.14204 19.7119 2.65387 20.2705 2.21008C20.8506 1.76629 21.377 1.429 21.8496 1.19823C20.8184 1.09172 19.7764 0.985214 18.7237 0.878705C17.6709 0.754443 16.586 0.67456 15.4688 0.639058C15.2754 0.639058 15.082 0.639058 14.8887 0.639058C14.6953 0.621306 14.5127 0.612431 14.3408 0.612431C12.9014 0.612431 11.5371 0.745568 10.2481 1.01184C8.98048 1.27812 8.00294 1.79291 7.31544 2.55623C7.12208 2.76925 6.98243 2.98227 6.89649 3.19529C6.81055 3.40831 6.76758 3.61245 6.76758 3.80772C6.76758 4.05624 6.84278 4.28702 6.99317 4.50004C7.07911 4.57104 7.17579 4.65092 7.28321 4.73968C7.39063 4.81069 7.48731 4.84619 7.57325 4.84619C7.48731 4.9172 7.36915 4.9527 7.21876 4.9527C7.06837 4.9527 6.91798 4.92607 6.76758 4.87282C6.63868 4.80181 6.53126 4.73081 6.44532 4.6598C6.23048 4.46453 6.06934 4.24264 5.96192 3.99411C5.8545 3.72784 5.80079 3.47044 5.80079 3.22192C5.80079 2.72487 5.95118 2.30771 6.25196 1.97043C7.41212 0.65681 9.3672 0 12.1172 0C12.2891 0 12.461 0 12.6328 0C12.8262 0 13.0088 0.00887538 13.1807 0.0266268C14.7705 0.0976334 16.3389 0.230771 17.8858 0.426038C19.4541 0.621306 21.0977 0.718939 22.8164 0.718939C23.7617 0.718939 24.6104 0.683436 25.3623 0.612431C26.1358 0.523673 26.6514 0.372784 26.9092 0.159764H26.9737C27.0596 0.159764 27.1348 0.186392 27.1992 0.239647C27.2852 0.27515 27.3282 0.346156 27.3282 0.452665C27.3282 0.754443 27.1241 0.985214 26.7159 1.14498C26.3076 1.28699 25.8887 1.36687 25.459 1.38463C24.9434 1.38463 24.4278 1.37575 23.9121 1.358C23.3965 1.32249 22.8916 1.28699 22.3975 1.25149H22.3653C21.8281 1.51776 21.1299 2.00593 20.2705 2.716C19.4112 3.42606 18.5733 4.31364 17.7569 5.37874L16.7901 6.63023H18.7881L18.4014 7.00301H16.5322C15.7158 8.08586 14.8672 9.15096 13.9863 10.1983C13.1055 11.2456 12.1709 12.1954 11.1826 13.0474C10.1943 13.8818 9.10938 14.5475 7.92774 15.0445C6.76759 15.5415 5.47852 15.7901 4.06055 15.7901Z" fill="black"/>
</svg>
